<?xml version="1.0" encoding="UTF-8" standalone="no" ?>
<!DOCTYPE svg PUBLIC "-//W3C//DTD SVG 1.1//EN" "http://www.w3.org/Graphics/SVG/1.1/DTD/svg11.dtd">
<svg xmlns="http://www.w3.org/2000/svg" version="1.1" width="16" height="16"
	 viewBox="0 0 16 16" xml:space="preserve">
<desc>Created with Fabric.js 3.6.3</desc>
    <!-- https://svgeditoronline.com/editor/ -->
    <defs>
</defs>
    <g transform="matrix(0.61 0 0 0.61 9.75 6.42)">
<g style="">
		<g transform="matrix(1 0 0 1 -3 -5)">
<polygon
        style="stroke: none; stroke-width: 1; stroke-dasharray: none; stroke-linecap: butt; stroke-dashoffset: 0; stroke-linejoin: miter; stroke-miterlimit: 4; fill: rgb(154,167,176); fill-opacity: 0.8; fill-rule: evenodd; opacity: 1;"
        points="2,-2 -2,2 2,2 "/>
</g>
    <g transform="matrix(1 0 0 1 0 -3.5)">
<polygon
        style="stroke: none; stroke-width: 1; stroke-dasharray: none; stroke-linecap: butt; stroke-dashoffset: 0; stroke-linejoin: miter; stroke-miterlimit: 4; fill: rgb(154,167,176); fill-opacity: 0.8; fill-rule: evenodd; opacity: 1;"
        points="0,-3.5 0,1.5 -5,1.5 -5,3.5 5,3.5 5,-3.5 "/>
</g>
    <g transform="matrix(1 0 0 1 0.5 4.5)">
<polygon
        style="stroke: none; stroke-width: 1; stroke-dasharray: none; stroke-linecap: butt; stroke-dashoffset: 0; stroke-linejoin: miter; stroke-miterlimit: 4; fill: rgb(1,153,241); fill-opacity: 0.7; fill-rule: evenodd; opacity: 1;"
        points="-7.5,3.5 7.5,3.5 7.5,-3.5 -7.5,-3.5 "/>
</g>
    <g transform="matrix(1 0 0 1 -3.54 4.56)">
<path style="stroke: none; stroke-width: 1; stroke-dasharray: none; stroke-linecap: butt; stroke-dashoffset: 0; stroke-linejoin: miter; stroke-miterlimit: 4; fill: rgb(255,255,255); fill-opacity: 0.8; fill-rule: evenodd; opacity: 1;"
      transform=" translate(-2.46, -2.56)"
      d="M -0.01047036 5.1165061 V 1.6670674e-7 H 1.5356498 L 2.4640199 3.4901134 L 3.3819197 1.6670674e-7 H 4.9315299 V 5.1165061 H 3.9717488 V 1.0889155 L 2.9561258 5.1165061 H 1.9614436 L 0.94931077 1.0889155 v 4.0275906 z"
      stroke-linecap="round"/>
</g>
    <g transform="matrix(1 0 0 1 1.83 4.58)">
<path style="stroke: none; stroke-width: 1; stroke-dasharray: none; stroke-linecap: butt; stroke-dashoffset: 0; stroke-linejoin: miter; stroke-miterlimit: 4; fill: rgb(255,255,255); fill-opacity: 0.8; fill-rule: evenodd; opacity: 1;"
      transform=" translate(-1.83, -2.58)"
      d="M 0.031411 5.1165061 V 0.04188152 H 1.0644845 V 4.2544481 h 2.5687233 v 0.862058 z" stroke-linecap="round"/>
</g>
    <g transform="matrix(1 0 0 1 5.49 4.56)">
<path style="stroke: none; stroke-width: 1; stroke-dasharray: none; stroke-linecap: butt; stroke-dashoffset: 0; stroke-linejoin: miter; stroke-miterlimit: 4; fill: rgb(255,255,255); fill-opacity: 0.8; fill-rule: evenodd; opacity: 1;"
      transform=" translate(-0.49, -2.56)" d="M -0.02792093 5.1165061 V 1.6670674e-7 H 1.0051526 V 5.1165061 Z"
      stroke-linecap="round"/>
</g>
</g>
</g>
    <g transform="matrix(0.66 0 0 0.66 6.75 9.42)">
<g style="">
		<g transform="matrix(1 0 0 1 -3 -5)">
<polygon
        style="stroke: none; stroke-width: 1; stroke-dasharray: none; stroke-linecap: butt; stroke-dashoffset: 0; stroke-linejoin: miter; stroke-miterlimit: 4; fill: rgb(154,167,176); fill-opacity: 0.8; fill-rule: evenodd; opacity: 1;"
        points="2,-2 -2,2 2,2 "/>
</g>
    <g transform="matrix(1 0 0 1 0 -3.5)">
<polygon
        style="stroke: none; stroke-width: 1; stroke-dasharray: none; stroke-linecap: butt; stroke-dashoffset: 0; stroke-linejoin: miter; stroke-miterlimit: 4; fill: rgb(154,167,176); fill-opacity: 0.8; fill-rule: evenodd; opacity: 1;"
        points="0,-3.5 0,1.5 -5,1.5 -5,3.5 5,3.5 5,-3.5 "/>
</g>
    <g transform="matrix(1 0 0 1 0.5 4.5)">
<polygon
        style="stroke: none; stroke-width: 1; stroke-dasharray: none; stroke-linecap: butt; stroke-dashoffset: 0; stroke-linejoin: miter; stroke-miterlimit: 4; fill: rgb(194,142,85); fill-opacity: 0.7; fill-rule: evenodd; opacity: 1;"
        points="-7.5,3.5 7.5,3.5 7.5,-3.5 -7.5,-3.5 "/>
</g>
    <g transform="matrix(1 0 0 1 -3.54 4.56)">
<path style="stroke: none; stroke-width: 1; stroke-dasharray: none; stroke-linecap: butt; stroke-dashoffset: 0; stroke-linejoin: miter; stroke-miterlimit: 4; fill: rgb(255,255,255); fill-opacity: 0.8; fill-rule: evenodd; opacity: 1;"
      transform=" translate(-2.46, -2.56)"
      d="M -0.01047036 5.1165061 V 1.6670674e-7 H 1.5356498 L 2.4640199 3.4901134 L 3.3819197 1.6670674e-7 H 4.9315299 V 5.1165061 H 3.9717488 V 1.0889155 L 2.9561258 5.1165061 H 1.9614436 L 0.94931077 1.0889155 v 4.0275906 z"
      stroke-linecap="round"/>
</g>
    <g transform="matrix(1 0 0 1 1.83 4.58)">
<path style="stroke: none; stroke-width: 1; stroke-dasharray: none; stroke-linecap: butt; stroke-dashoffset: 0; stroke-linejoin: miter; stroke-miterlimit: 4; fill: rgb(255,255,255); fill-opacity: 0.8; fill-rule: evenodd; opacity: 1;"
      transform=" translate(-1.83, -2.58)"
      d="M 0.031411 5.1165061 V 0.04188152 H 1.0644845 V 4.2544481 h 2.5687233 v 0.862058 z" stroke-linecap="round"/>
</g>
</g>
</g>
</svg>